<?xml version="1.0" encoding="iso-8859-1"?>
<!-- Generator: Adobe Illustrator 19.0.0, SVG Export Plug-In . SVG Version: 6.00 Build 0)  -->
<svg version="1.1" id="Capa_1" xmlns="http://www.w3.org/2000/svg" xmlns:xlink="http://www.w3.org/1999/xlink" x="0px" y="0px"
	 viewBox="0 0 512.001 512.001" style="enable-background:new 0 0 512.001 512.001;" xml:space="preserve">
<g>
	<g>
		<path d="M511.896,200.156c-0.012-0.071-0.035-0.14-0.049-0.211c-0.058-0.286-0.13-0.569-0.221-0.848
			c-0.039-0.119-0.085-0.234-0.13-0.351c-0.088-0.229-0.186-0.454-0.297-0.675c-0.06-0.119-0.12-0.237-0.186-0.354
			c-0.038-0.067-0.066-0.137-0.107-0.203c-0.101-0.166-0.22-0.317-0.333-0.473c-0.06-0.084-0.113-0.171-0.178-0.252
			c-0.232-0.295-0.484-0.57-0.755-0.824c-0.014-0.013-0.023-0.028-0.037-0.041c-0.048-0.045-0.104-0.077-0.153-0.12
			c-0.221-0.194-0.45-0.375-0.69-0.541c-0.104-0.072-0.21-0.139-0.317-0.205c-0.218-0.135-0.443-0.257-0.674-0.368
			c-0.107-0.052-0.211-0.107-0.32-0.154c-0.322-0.137-0.651-0.257-0.991-0.349c-0.013-0.004-0.026-0.01-0.039-0.013
			c-0.35-0.092-0.709-0.152-1.072-0.193c-0.118-0.013-0.236-0.015-0.354-0.023c-0.162-0.01-0.321-0.031-0.485-0.031H355.159V164
			c0-0.219-0.014-0.435-0.033-0.649c-0.003-0.029-0.002-0.059-0.004-0.088c-0.033-0.335-0.093-0.662-0.169-0.983
			c-0.015-0.065-0.033-0.13-0.05-0.194c-0.087-0.329-0.189-0.652-0.318-0.962c-0.132-0.317-0.29-0.62-0.462-0.914
			c-0.035-0.06-0.071-0.119-0.108-0.177c-0.176-0.281-0.363-0.554-0.574-0.809c-0.005-0.007-0.012-0.012-0.017-0.019
			c-0.203-0.244-0.425-0.47-0.657-0.686c-0.057-0.053-0.114-0.105-0.172-0.157c-0.244-0.213-0.497-0.416-0.767-0.596
			c-0.009-0.006-0.018-0.01-0.027-0.016c-0.265-0.176-0.545-0.33-0.832-0.472c-0.059-0.029-0.118-0.058-0.178-0.086
			c-0.594-0.274-1.229-0.47-1.894-0.581c-0.077-0.013-0.153-0.025-0.23-0.035c-0.33-0.044-0.665-0.075-1.007-0.075H164.341
			c-0.342,0-0.677,0.031-1.007,0.075c-0.077,0.01-0.154,0.022-0.23,0.035c-0.665,0.111-1.3,0.307-1.894,0.581
			c-0.06,0.028-0.119,0.057-0.178,0.086c-0.287,0.142-0.567,0.296-0.832,0.472c-0.009,0.006-0.018,0.01-0.027,0.016
			c-0.27,0.181-0.523,0.383-0.767,0.596c-0.059,0.051-0.115,0.104-0.173,0.157c-0.232,0.216-0.454,0.442-0.657,0.686
			c-0.005,0.007-0.012,0.012-0.017,0.019c-0.211,0.255-0.398,0.528-0.574,0.809c-0.037,0.059-0.073,0.117-0.108,0.177
			c-0.172,0.293-0.33,0.596-0.462,0.914c-0.129,0.31-0.231,0.633-0.318,0.962c-0.017,0.065-0.035,0.129-0.05,0.194
			c-0.075,0.321-0.136,0.647-0.169,0.983c-0.003,0.029-0.002,0.059-0.004,0.088c-0.018,0.214-0.033,0.43-0.033,0.649v29.928h-4.844
			c-4.142,0-7.5,3.358-7.5,7.5c0,4.142,3.358,7.5,7.5,7.5h12.344c4.142,0,7.5-3.358,7.5-7.5v-19.273l11.827,11.871v26.829H83.981
			l-7.256-11.927h43.271c4.142,0,7.5-3.358,7.5-7.5c0-4.142-3.358-7.5-7.5-7.5H63.382c-0.046,0-0.09,0.009-0.135,0.009
			c-0.047,0.001-0.094-0.006-0.141-0.005c-0.14,0.005-0.276,0.03-0.414,0.043c-0.156,0.015-0.313,0.025-0.467,0.049
			c-0.183,0.029-0.361,0.072-0.541,0.114c-0.15,0.035-0.301,0.065-0.447,0.109c-0.177,0.053-0.348,0.121-0.52,0.187
			c-0.141,0.054-0.284,0.102-0.421,0.163c-0.17,0.077-0.331,0.169-0.494,0.258c-0.13,0.071-0.263,0.135-0.388,0.213
			c-0.161,0.101-0.312,0.217-0.465,0.33c-0.116,0.085-0.236,0.163-0.347,0.255c-0.154,0.127-0.294,0.27-0.437,0.41
			c-0.097,0.094-0.2,0.181-0.292,0.28c-0.152,0.164-0.287,0.345-0.424,0.523c-0.069,0.09-0.147,0.172-0.212,0.265
			c-0.195,0.279-0.373,0.572-0.531,0.88L0.816,307.245c-0.173,0.338-0.31,0.687-0.429,1.041c-0.038,0.113-0.066,0.228-0.098,0.342
			c-0.07,0.247-0.128,0.496-0.172,0.747c-0.022,0.127-0.043,0.253-0.058,0.381c-0.032,0.263-0.047,0.527-0.051,0.791
			c-0.002,0.103-0.01,0.205-0.008,0.307c0.009,0.362,0.042,0.722,0.104,1.079c0.012,0.071,0.035,0.14,0.049,0.211
			c0.058,0.286,0.13,0.569,0.221,0.848c0.039,0.119,0.085,0.234,0.13,0.351c0.088,0.229,0.186,0.454,0.297,0.675
			c0.06,0.119,0.12,0.237,0.186,0.354c0.038,0.067,0.066,0.137,0.107,0.203c0.101,0.166,0.22,0.317,0.333,0.473
			c0.06,0.084,0.113,0.171,0.178,0.252c0.232,0.295,0.484,0.57,0.755,0.824c0.014,0.013,0.023,0.028,0.037,0.041
			c0.193,0.179,0.395,0.344,0.602,0.499c0.044,0.033,0.092,0.062,0.137,0.094c0.192,0.137,0.389,0.265,0.591,0.382
			c0.069,0.04,0.139,0.079,0.21,0.117c0.206,0.111,0.417,0.212,0.631,0.303c0.051,0.022,0.101,0.047,0.152,0.067
			c0.265,0.105,0.535,0.195,0.809,0.269c0.063,0.017,0.128,0.029,0.191,0.045c0.22,0.053,0.441,0.097,0.664,0.13
			c0.082,0.012,0.163,0.025,0.246,0.034c0.284,0.033,0.57,0.055,0.857,0.055c0.002,0,0.003,0,0.005,0H156.84V348
			c0,0.221,0.014,0.438,0.033,0.654c0.002,0.028,0.001,0.055,0.004,0.083c0.033,0.336,0.093,0.663,0.169,0.984
			c0.015,0.065,0.033,0.129,0.05,0.194c0.087,0.329,0.189,0.652,0.318,0.962c0.132,0.317,0.289,0.619,0.462,0.912
			c0.036,0.061,0.072,0.12,0.109,0.18c0.175,0.28,0.363,0.553,0.572,0.807c0.007,0.008,0.015,0.015,0.021,0.024
			c0.201,0.242,0.422,0.466,0.652,0.68c0.058,0.054,0.116,0.107,0.176,0.16c0.243,0.213,0.495,0.414,0.764,0.595
			c0.01,0.007,0.02,0.012,0.03,0.018c0.264,0.175,0.543,0.329,0.829,0.47c0.06,0.029,0.119,0.058,0.179,0.086
			c0.594,0.274,1.228,0.47,1.894,0.581c0.077,0.013,0.153,0.025,0.23,0.035c0.33,0.044,0.665,0.075,1.007,0.075h19.532
			c4.142,0,7.5-3.358,7.5-7.5c0-4.142-3.358-7.5-7.5-7.5h-1.472l11.882-11.926h123.434l11.882,11.926H216.332
			c-4.142,0-7.5,3.358-7.5,7.5c0,4.142,3.358,7.5,7.5,7.5h131.327c0.342,0,0.677-0.031,1.007-0.075
			c0.077-0.01,0.154-0.022,0.23-0.035c0.665-0.111,1.3-0.307,1.894-0.581c0.06-0.028,0.12-0.057,0.179-0.086
			c0.286-0.141,0.565-0.295,0.829-0.47c0.01-0.007,0.021-0.012,0.03-0.018c0.269-0.18,0.522-0.382,0.764-0.595
			c0.06-0.052,0.118-0.106,0.176-0.16c0.23-0.215,0.451-0.439,0.652-0.68c0.007-0.008,0.015-0.015,0.021-0.024
			c0.21-0.254,0.397-0.526,0.572-0.807c0.037-0.06,0.074-0.119,0.109-0.18c0.172-0.293,0.33-0.596,0.461-0.912
			c0.129-0.31,0.231-0.633,0.318-0.962c0.017-0.065,0.035-0.129,0.05-0.194c0.076-0.321,0.136-0.648,0.169-0.983
			c0.003-0.029,0.002-0.057,0.004-0.085c0.019-0.215,0.033-0.432,0.033-0.651v-29.839h5.094c4.142,0,7.5-3.358,7.5-7.5
			c0-4.142-3.358-7.5-7.5-7.5h-12.594c-4.142,0-7.5,3.358-7.5,7.5v19.185l-11.827-11.87v-26.742h99.687l7.257,11.927h-42.522
			c-4.142,0-7.5,3.358-7.5,7.5c0,4.142,3.358,7.5,7.5,7.5h55.864c0.092,0,0.184-0.001,0.276-0.005
			c0.14-0.005,0.276-0.03,0.414-0.043c0.156-0.015,0.313-0.025,0.467-0.049c0.183-0.029,0.361-0.072,0.54-0.114
			c0.15-0.035,0.301-0.065,0.448-0.109c0.177-0.053,0.347-0.121,0.518-0.186c0.141-0.054,0.285-0.102,0.423-0.164
			c0.169-0.076,0.329-0.168,0.491-0.256c0.131-0.071,0.265-0.136,0.392-0.215c0.159-0.099,0.307-0.214,0.459-0.325
			c0.118-0.087,0.241-0.166,0.353-0.259c0.15-0.124,0.287-0.264,0.427-0.4c0.101-0.097,0.208-0.187,0.303-0.29
			c0.147-0.16,0.278-0.335,0.412-0.508c0.073-0.095,0.155-0.181,0.223-0.28c0.195-0.279,0.373-0.572,0.53-0.88l55.889-109.233
			c0.173-0.338,0.31-0.687,0.429-1.041c0.041-0.116,0.068-0.231,0.101-0.345c0.07-0.247,0.128-0.496,0.172-0.747
			c0.022-0.127,0.043-0.253,0.058-0.381c0.032-0.263,0.047-0.527,0.051-0.791c0.002-0.103,0.01-0.205,0.008-0.307
			C511.991,200.873,511.958,200.513,511.896,200.156z M347.659,208.928h130.258l-19.46,11.927H328.332v-26.829l11.827-11.871v19.273
			C340.159,205.57,343.517,208.928,347.659,208.928z M182.4,171.5h147.2l-11.883,11.927H194.283L182.4,171.5z M59.655,225.179
			l4.293-8.391l7.23,11.883l-25.468,49.77l-19.386,11.882L59.655,225.179z M183.668,317.976l-11.827,11.87v-19.185
			c0-4.142-3.358-7.5-7.5-7.5H34.083l19.46-11.927h130.125V317.976z M427.648,276.234H320.832c-4.142,0-7.5,3.358-7.5,7.5v29.84
			H198.668v-29.84c0-4.142-3.358-7.5-7.5-7.5H63.69l20.662-40.379h106.816c4.142,0,7.5-3.358,7.5-7.5v-29.928h114.663v29.928
			c0,4.142,3.358,7.5,7.5,7.5H448.31L427.648,276.234z M448.052,295.301l-7.23-11.883l25.468-49.77l19.387-11.882L448.052,295.301z"
			/>
	</g>
</g>
<g>
</g>
<g>
</g>
<g>
</g>
<g>
</g>
<g>
</g>
<g>
</g>
<g>
</g>
<g>
</g>
<g>
</g>
<g>
</g>
<g>
</g>
<g>
</g>
<g>
</g>
<g>
</g>
<g>
</g>
</svg>
